<svg xmlns="http://www.w3.org/2000/svg" class="highcharts-root" style="font-family: Lato, sans-serif; font-size: 12px;" viewBox="0 0 512 337" width="512" height="337" version="1.1"><desc>Created with Highcharts 7.2.2</desc><defs><clipPath id="highcharts-45u3fyo-1-"><rect fill="none" x="0" y="0" width="282" height="444" /></clipPath></defs><rect class="highcharts-background" fill="transparent" x="0" y="0" width="512" height="337" rx="0" ry="0" /><rect class="highcharts-plot-background" fill="none" x="68" y="0" width="444" height="282" /><g class="highcharts-pane-group" data-z-index="0" /><g class="highcharts-grid highcharts-xaxis-grid" data-z-index="1"><path class="highcharts-grid-line" opacity="1" fill="none" d="M 68 141.5 L 512 141.5" data-z-index="1" /><path class="highcharts-grid-line" opacity="1" fill="none" d="M 68 282.5 L 512 282.5" data-z-index="1" /><path class="highcharts-grid-line" opacity="1" fill="none" d="M 68 0.5 L 512 0.5" data-z-index="1" /></g><g class="highcharts-grid highcharts-yaxis-grid" data-z-index="1"><path class="highcharts-grid-line" opacity="1" fill="none" stroke="rgba(108, 117, 125, 0.5)" stroke-dasharray="4,3" stroke-width="1" d="M 67.5 0 L 67.5 282" data-z-index="1" /><path class="highcharts-grid-line" opacity="1" fill="none" stroke="rgba(108, 117, 125, 0.5)" stroke-dasharray="4,3" stroke-width="1" d="M 134.5 0 L 134.5 282" data-z-index="1" /><path class="highcharts-grid-line" opacity="1" fill="none" stroke="rgba(108, 117, 125, 0.5)" stroke-dasharray="4,3" stroke-width="1" d="M 200.5 0 L 200.5 282" data-z-index="1" /><path class="highcharts-grid-line" opacity="1" fill="none" stroke="rgba(108, 117, 125, 0.5)" stroke-dasharray="4,3" stroke-width="1" d="M 267.5 0 L 267.5 282" data-z-index="1" /><path class="highcharts-grid-line" opacity="1" fill="none" stroke="rgba(108, 117, 125, 0.5)" stroke-dasharray="4,3" stroke-width="1" d="M 334.5 0 L 334.5 282" data-z-index="1" /><path class="highcharts-grid-line" opacity="1" fill="none" stroke="rgba(108, 117, 125, 0.5)" stroke-dasharray="4,3" stroke-width="1" d="M 401.5 0 L 401.5 282" data-z-index="1" /><path class="highcharts-grid-line" opacity="1" fill="none" stroke="rgba(108, 117, 125, 0.5)" stroke-dasharray="4,3" stroke-width="1" d="M 467.5 0 L 467.5 282" data-z-index="1" /></g><rect class="highcharts-plot-border" fill="none" x="68" y="0" width="444" height="282" data-z-index="1" /><g class="highcharts-plot-lines-1" data-z-index="1"><path class="highcharts-plot-line " fill="none" stroke="#6c757d" stroke-dasharray="none" stroke-width="1" d="M 67.5 0 L 67.5 282" /></g><g class="highcharts-axis highcharts-xaxis" data-z-index="2"><path class="highcharts-axis-line" fill="none" d="M 68 0 L 68 282" data-z-index="7" /></g><g class="highcharts-axis highcharts-yaxis" data-z-index="2"><path class="highcharts-axis-line" fill="none" stroke="#6c757d" stroke-width="1" d="M 68 282.5 L 512 282.5" data-z-index="7" /></g><g class="highcharts-series-group" data-z-index="3"><g class="highcharts-series highcharts-series-0 highcharts-bar-series highcharts-tracker" clip-path="url(&quot;#highcharts-45u3fyo-1-&quot;)" transform="translate(512 282) rotate(90) scale(-1 1) scale(1)" data-z-index="0.1"><rect class="highcharts-point" opacity="1" fill="#0d9da3" x="178" y="129" width="68" height="316" /><rect class="highcharts-point" opacity="1" fill="#0d9da3" x="37" y="22" width="68" height="423" /></g><g class="highcharts-markers highcharts-series-0 highcharts-bar-series" clip-path="none" transform="translate(512 282) rotate(90) scale(-1 1) scale(1)" data-z-index="0.1" /></g><text class="highcharts-title" style="color: rgb(108, 117, 125); font-size: 22px; cursor: text; fill: #6c757d;" text-anchor="middle" x="256" y="17" data-z-index="4" /><text class="highcharts-subtitle" style="color: rgb(102, 102, 102); fill: #666666;" text-anchor="middle" x="256" y="14" data-z-index="4" /><text class="highcharts-caption" style="color: rgb(102, 102, 102); fill: #666666;" text-anchor="start" x="0" y="349" data-z-index="4" /><g class="highcharts-data-labels highcharts-series-0 highcharts-bar-series highcharts-tracker" opacity="1" transform="translate(68) scale(1)" data-z-index="6" /><g class="highcharts-legend" transform="translate(199 323)" data-z-index="7"><rect class="highcharts-legend-box" visibility="visible" fill="none" x="0" y="0" width="114" height="14" rx="0" ry="0" /><g data-z-index="1"><g><g class="highcharts-legend-item highcharts-bar-series highcharts-color-undefined highcharts-series-0" transform="translate(0 -5)" data-z-index="1"><text style="color: rgb(108, 117, 125); font-size: 13px; font-weight: normal; cursor: default; fill: #6c757d;" text-anchor="start" x="20" y="16" data-z-index="2"><tspan>Average income</tspan></text><rect class="highcharts-point" fill="#0d9da3" x="1.5" y="4" width="13" height="13" rx="1" ry="1" data-z-index="3" /></g></g></g></g><g class="highcharts-axis-labels highcharts-xaxis-labels" data-z-index="7"><text style="color: rgb(108, 117, 125); font-size: 13px; cursor: text; fill: #6c757d;" opacity="1" text-anchor="end" transform="translate(0)" x="53" y="76">Ontario</text><text style="color: rgb(108, 117, 125); font-size: 13px; cursor: text; fill: #6c757d;" opacity="1" text-anchor="end" transform="translate(0)" x="53" y="217">Manitoba</text></g><g class="highcharts-axis-labels highcharts-yaxis-labels" data-z-index="7"><text style="color: rgb(108, 117, 125); font-size: 13px; cursor: text; fill: #6c757d;" opacity="1" text-anchor="middle" transform="translate(0)" x="68" y="303">0</text><text style="color: rgb(108, 117, 125); font-size: 13px; cursor: text; fill: #6c757d;" opacity="1" text-anchor="middle" transform="translate(0)" x="134.7178" y="303">20k</text><text style="color: rgb(108, 117, 125); font-size: 13px; cursor: text; fill: #6c757d;" opacity="1" text-anchor="middle" transform="translate(0)" x="201.4355" y="303">40k</text><text style="color: rgb(108, 117, 125); font-size: 13px; cursor: text; fill: #6c757d;" opacity="1" text-anchor="middle" transform="translate(0)" x="268.1533" y="303">60k</text><text style="color: rgb(108, 117, 125); font-size: 13px; cursor: text; fill: #6c757d;" opacity="1" text-anchor="middle" transform="translate(0)" x="334.871" y="303">80k</text><text style="color: rgb(108, 117, 125); font-size: 13px; cursor: text; fill: #6c757d;" opacity="1" text-anchor="middle" transform="translate(0)" x="401.5888" y="303">100k</text><text style="color: rgb(108, 117, 125); font-size: 13px; cursor: text; fill: #6c757d;" opacity="1" text-anchor="middle" transform="translate(0)" x="468.3066" y="303">120k</text></g><g class="highcharts-legend" transform="translate(199 323)" data-z-index="7"><rect class="highcharts-legend-box" visibility="visible" fill="none" x="0" y="0" width="114" height="14" rx="0" ry="0" /><g data-z-index="1"><g /></g></g><g class="highcharts-legend" transform="translate(199 323)" data-z-index="7"><rect class="highcharts-legend-box" visibility="visible" fill="none" x="0" y="0" width="114" height="14" rx="0" ry="0" /><g data-z-index="1"><g /></g></g><g class="highcharts-legend" transform="translate(199 323)" data-z-index="7"><rect class="highcharts-legend-box" visibility="visible" fill="none" x="0" y="0" width="114" height="14" rx="0" ry="0" /><g data-z-index="1"><g /></g></g><g class="highcharts-legend" transform="translate(199 323)" data-z-index="7"><rect class="highcharts-legend-box" visibility="visible" fill="none" x="0" y="0" width="114" height="14" rx="0" ry="0" /><g data-z-index="1"><g /></g></g><g class="highcharts-legend" transform="translate(199 323)" data-z-index="7"><rect class="highcharts-legend-box" visibility="visible" fill="none" x="0" y="0" width="114" height="14" rx="0" ry="0" /><g data-z-index="1"><g /></g></g><g class="highcharts-legend" transform="translate(199 323)" data-z-index="7"><rect class="highcharts-legend-box" visibility="visible" fill="none" x="0" y="0" width="114" height="14" rx="0" ry="0" /><g data-z-index="1"><g /></g></g><g class="highcharts-legend" transform="translate(199 323)" data-z-index="7"><rect class="highcharts-legend-box" visibility="visible" fill="none" x="0" y="0" width="114" height="14" rx="0" ry="0" /><g data-z-index="1"><g /></g></g><g class="highcharts-legend" transform="translate(199 323)" data-z-index="7"><rect class="highcharts-legend-box" visibility="visible" fill="none" x="0" y="0" width="114" height="14" rx="0" ry="0" /><g data-z-index="1"><g /></g></g><g class="highcharts-legend" transform="translate(199 323)" data-z-index="7"><rect class="highcharts-legend-box" visibility="visible" fill="none" x="0" y="0" width="114" height="14" rx="0" ry="0" /><g data-z-index="1"><g /></g></g><g class="highcharts-legend" transform="translate(199 323)" data-z-index="7"><rect class="highcharts-legend-box" visibility="visible" fill="none" x="0" y="0" width="114" height="14" rx="0" ry="0" /><g data-z-index="1"><g /></g></g><g class="highcharts-legend" transform="translate(199 323)" data-z-index="7"><rect class="highcharts-legend-box" visibility="visible" fill="none" x="0" y="0" width="114" height="14" rx="0" ry="0" /><g data-z-index="1"><g /></g></g><g class="highcharts-legend" transform="translate(199 323)" data-z-index="7"><rect class="highcharts-legend-box" visibility="visible" fill="none" x="0" y="0" width="114" height="14" rx="0" ry="0" /><g data-z-index="1"><g /></g></g><g class="highcharts-legend" transform="translate(199 323)" data-z-index="7"><rect class="highcharts-legend-box" visibility="visible" fill="none" x="0" y="0" width="114" height="14" rx="0" ry="0" /><g data-z-index="1"><g /></g></g><g class="highcharts-legend" transform="translate(199 323)" data-z-index="7"><rect class="highcharts-legend-box" visibility="visible" fill="none" x="0" y="0" width="114" height="14" rx="0" ry="0" /><g data-z-index="1"><g /></g></g><g class="highcharts-legend" transform="translate(199 323)" data-z-index="7"><rect class="highcharts-legend-box" visibility="visible" fill="none" x="0" y="0" width="114" height="14" rx="0" ry="0" /><g data-z-index="1"><g /></g></g><g class="highcharts-legend" transform="translate(199 323)" data-z-index="7"><rect class="highcharts-legend-box" visibility="visible" fill="none" x="0" y="0" width="114" height="14" rx="0" ry="0" /><g data-z-index="1"><g /></g></g><g class="highcharts-legend" transform="translate(199 323)" data-z-index="7"><rect class="highcharts-legend-box" visibility="visible" fill="none" x="0" y="0" width="114" height="14" rx="0" ry="0" /><g data-z-index="1"><g /></g></g></svg>